<?xml version="1.0" standalone="no"?>
<!DOCTYPE svg PUBLIC "-//W3C//DTD SVG 20010904//EN"
 "http://www.w3.org/TR/2001/REC-SVG-20010904/DTD/svg10.dtd">
<svg version="1.0" xmlns="http://www.w3.org/2000/svg"
 width="260.000000pt" height="260.000000pt" viewBox="0 0 260.000000 260.000000"
 preserveAspectRatio="xMidYMid meet">
<metadata>
Created by potrace 1.11, written by Peter Selinger 2001-2013
</metadata>
<g transform="translate(0.000000,260.000000) scale(0.100000,-0.100000)"
fill="#000000" stroke="none">
<path d="M0 1300 l0 -1300 1300 0 1300 0 0 1300 0 1300 -1300 0 -1300 0 0
-1300z m1895 645 c171 -45 299 -172 350 -348 9 -31 21 -59 26 -62 5 -4 9 -118
9 -273 0 -247 -2 -270 -21 -312 -43 -96 -128 -147 -265 -157 -126 -10 -268 28
-295 78 -17 33 -2 88 27 101 20 9 41 7 108 -10 98 -26 134 -27 180 -8 44 18
66 52 66 100 0 36 -1 38 -17 24 -78 -69 -309 -98 -428 -55 -39 14 -42 14 -68
-9 -31 -26 -61 -30 -93 -11 -12 7 -71 59 -133 117 -61 58 -116 107 -121 108
-6 2 -10 -35 -10 -92 0 -82 -3 -99 -20 -116 -41 -41 -125 -38 -160 7 -19 25
-20 38 -20 370 0 243 3 351 12 366 18 35 40 46 91 47 38 0 53 -5 72 -25 l25
-24 0 -218 0 -217 45 44 c44 43 45 46 45 105 0 311 298 547 595 470z m-1412
-385 c14 -11 29 -30 32 -41 6 -19 8 -18 41 10 42 38 104 55 172 48 70 -7 115
-37 144 -95 21 -43 23 -62 26 -237 3 -181 2 -192 -18 -217 -36 -47 -119 -50
-160 -6 -18 20 -20 35 -20 167 0 166 -10 217 -45 233 -34 15 -83 -1 -109 -35
-19 -25 -22 -46 -26 -194 -5 -150 -7 -166 -25 -179 -48 -35 -122 -29 -155 13
-19 24 -20 39 -20 257 0 196 2 235 16 254 31 45 104 55 147 22z"/>
</g>
</svg>
